# xmcd
#
# Track frame offsets:
#   150
#   19433
#   36672
#   53196
#   67840
#   81520
#   97774
#   110450
#   125772
#   139774
#   153588
#   166879
#   180791
#
# Disc length: 2560 seconds
#
# Revision: 0
# Processed by: cddbd v1.5.2PL0 Copyright (c) Steve Scherf et al.
# Submitted via: ProFiler_MP3 1.5.003
#
DISCID=ac09fe0d
DTITLE=Fady Maalouf - Fady 2008
DYEAR=2008
DGENRE=Balladen
TTITLE0=01: She's like the wind
TTITLE1=02: Careless Whisper
TTITLE2=03:Blessed
TTITLE3=04: All by myself
TTITLE4=05: Back for good
TTITLE5=06:Feeling good
TTITLE6=07: Never gonna give you up
TTITLE7=08: Und wenn ein Lied...
TTITLE8=09: We have a dream
TTITLE9=10: Yesterday
TTITLE10=11: You raise me up
TTITLE11=12: Your song
TTITLE12=13: Secrets in your eyes
EXTD=
EXTT0=
EXTT1=
EXTT2=
EXTT3=
EXTT4=
EXTT5=
EXTT6=
EXTT7=
EXTT8=
EXTT9=
EXTT10=
EXTT11=
EXTT12=
PLAYORDER=
